<?xml version="1.0" encoding="utf-8"?>
<!-- Generator: Adobe Illustrator 26.3.1, SVG Export Plug-In . SVG Version: 6.00 Build 0)  -->
<svg version="1.1" id="Layer_1" xmlns="http://www.w3.org/2000/svg" xmlns:xlink="http://www.w3.org/1999/xlink" x="0px" y="0px"
	 viewBox="0 0 377.11 144.06" style="enable-background:new 0 0 377.11 144.06;" xml:space="preserve">
<style type="text/css">
	.st0{fill:#A8A6AB;}
	.st1{fill:#41403E;}
</style>
<g>
	<g>
		<path class="st0" d="M34.22,19.7c-0.54-3.09-2.79-5.58-5.81-6.45c-2.51-0.73-5.89-1.01-9.54,0.65L23.41,0H13.2L0.97,33.91
			c-0.98,2.72-1.26,5.67-0.66,8.5c0.31,1.48,0.88,2.86,1.77,3.71c2.58,2.44,6,4.01,15.2,1.36c9.45-2.72,15.43-15.43,16.79-21.56
			C34.6,23.55,34.52,21.42,34.22,19.7z M19.94,32.15c-2.76,4.78-6.24,7.95-7.77,7.07c-1.53-0.88-0.53-5.48,2.24-10.26
			s6.24-7.95,7.77-7.07C23.7,22.78,22.7,27.37,19.94,32.15z"/>
		<path class="st0" d="M43,14.05h10.51L46.7,35.19c-0.31,0.82-0.6,2.29-0.12,3.02c0.53,0.8,1.9,1.08,3.81-0.38
			c0.95-0.72,1.64-1.6,2.38-2.65c0.42-0.6,0.78-1.25,1.03-1.94l6.98-19.21h11.03L60.85,47.1h-9.08v-2.27c0,0-2.27,3.4-7.03,3.4
			c0,0-11.27,2.12-9.3-10.36L43,14.05z"/>
		<path class="st0" d="M77.53,14.05h24.39v1.06c0,2.06-0.79,4.05-2.2,5.56L83.55,37.95h11.01l-2.95,9.64l-26.1-0.45
			c0,0-0.49-5.48,2.61-8.4c3.21-3.02,16.79-15.43,16.79-15.43H73.9L77.53,14.05z"/>
		<path class="st0" d="M106.27,14.05h24.39v1.06c0,2.06-0.79,4.05-2.2,5.56l-16.18,17.28h11.01l-2.95,9.64l-26.1-0.45
			c0,0-0.49-5.48,2.61-8.4c3.21-3.02,16.79-15.43,16.79-15.43h-11.01L106.27,14.05z"/>
	</g>
	<g>
		<path class="st1" d="M296.37,59.38"/>
		<g>
			<polygon class="st1" points="43.69,141.09 22.75,141.09 59.84,64.39 84.72,64.39 79.04,108.09 106.54,64.39 130.98,64.39 
				109.59,140.86 89.95,140.86 103.48,96.71 74.24,140.86 57.66,140.86 62.02,98.07 			"/>
			<path class="st1" d="M196.87,85.33h-5.67l-4.36,10.93h4.8l-11.78,31.87c0,0-9.6,23.22,28.8,11.38l1.75-9.1
				c0,0-16.58,5.46-7.86-12.29l7.86-21.4h9.6l6.98-11.84h-10.91l6.11-15.02h-19.64L196.87,85.33z"/>
			<path class="st1" d="M253.6,84.87h-17.02l-21.82,55.99h20.07l12.66-34.6c0,0,3.05-10.01,15.71-7.28l9.6-14.57
				c0,0-8.29-3.19-17.89,3.64C254.91,88.06,251.42,91.25,253.6,84.87z"/>
			<polygon class="st1" points="295.94,84.87 277.17,84.87 255.79,141.32 274.99,141.32 			"/>
			<polygon class="st1" points="336.09,64.39 310.77,64.39 319.07,100.8 278.92,141.32 304.23,140.86 323.43,119.92 326.05,140.86 
				350.05,140.86 341.76,99.89 377.11,64.84 352.67,64.84 337.83,82.6 			"/>
			<path class="st1" d="M175.92,118.56c17.46-37.78-13.09-35.05-13.09-35.05c-33.6,2.73-40.59,36.87-40.59,36.87
				c-3.49,41.42,47.46,15.9,47.46,15.9l-2.95-12.26c-30.11,16.84-24.88-5.46-24.88-5.46H175.92z M154.54,96.71
				c0,0,12.66-3.64,6.98,11.38h-14.4C147.12,108.09,147.99,99.89,154.54,96.71z"/>
			<path class="st1" d="M298.13,76.23c-5.27,4.44-11.98,4.88-14.99,1c-3.01-3.89-1.19-10.64,4.08-15.08
				c5.27-4.44,11.98-4.89,14.99-1S303.4,71.79,298.13,76.23z"/>
		</g>
	</g>
</g>
</svg>
