<?xml version="1.0" encoding="utf-8"?>
<!-- Generator: Adobe Illustrator 26.3.1, SVG Export Plug-In . SVG Version: 6.00 Build 0)  -->
<svg version="1.1" id="Layer_1" xmlns="http://www.w3.org/2000/svg" xmlns:xlink="http://www.w3.org/1999/xlink" x="0px" y="0px"
	 viewBox="0 0 390.75 113.46" style="enable-background:new 0 0 390.75 113.46;" xml:space="preserve">
<style type="text/css">
	.st0{fill:#003964;}
	.st1{fill:#ED1A3B;}
	.st2{fill:#58595B;}
</style>
<g>
	<g>
		<g>
			<g>
				<g>
					<g>
						<path class="st0" d="M110.42,55.09c-8.62-5.85-19.65-3.46-25.44,5.34c-4.84,7.36-12.14,8.27-14.97,8.27
							c-9.21,0-15.52-6.48-17.39-13.19h0c-0.02-0.07-0.03-0.12-0.05-0.19c-0.01-0.07-0.04-0.15-0.06-0.23
							c-0.73-2.8-0.92-4.14-0.92-7.11c0-16.04,16.46-33.89,40.16-33.89c24.27,0,38.16,18.47,41.73,28.74
							c-0.06-0.18-0.11-0.36-0.18-0.54C126.42,22.2,107.38,7.77,84.95,7.77c-28.22,0-51.11,22.88-51.11,51.1
							c0,25.23,18.2,46.82,43.44,46.82c20.13,0,33.66-11.29,39.86-26.84C120.56,70.34,118.15,60.34,110.42,55.09z"/>
					</g>
					<g>
						<path class="st1" d="M133.81,43.83c-2.98-10.01-16.98-29.74-42.05-29.74c-23.7,0-40.16,17.86-40.16,33.89
							c0,2.97,0.18,4.31,0.92,7.11c-0.31-1.22-0.47-2.45-0.47-3.65c0-16.7,16.72-28.28,33.92-28.28c23.28,0,42.13,18.87,42.13,42.13
							c0,18.24-10.5,34.03-25.75,41.62l0,0.01c19.67-7.12,33.71-25.95,33.71-48.07C136.06,53.63,135.35,49.02,133.81,43.83z"/>
					</g>
				</g>
			</g>
		</g>
	</g>
	<g>
		<path class="st2" d="M185.29,35.85v2.52h-9.04v3.55h-2.86v-3.55h-9.22v-2.52H185.29z M165.87,33.51v-8.83h17.72v8.83H165.87z
			 M168.73,40.21v4.25h15.15v2.52h-18v-6.77H168.73z M180.76,27.15h-12.08v3.92h12.08V27.15z"/>
		<path class="st2" d="M200.95,34.7c0,0.7-0.15,1.37-0.44,2.01c-0.29,0.64-0.7,1.19-1.21,1.67c-0.5,0.46-1.09,0.83-1.78,1.11
			c-0.24,0.09-0.5,0.16-0.77,0.23v2.91h6.03v2.5h-14.91v-2.5h6.05v-2.91c-0.29-0.07-0.55-0.15-0.77-0.23
			c-0.69-0.27-1.29-0.64-1.8-1.11c-0.52-0.48-0.91-1.04-1.2-1.67c-0.28-0.64-0.42-1.3-0.42-2.01c0-0.7,0.14-1.37,0.42-2
			c0.28-0.63,0.68-1.18,1.2-1.66c0.51-0.48,1.12-0.85,1.8-1.11c0.69-0.26,1.42-0.39,2.19-0.39c0.77,0,1.5,0.13,2.19,0.39
			c0.69,0.26,1.28,0.63,1.78,1.11c0.52,0.48,0.92,1.03,1.21,1.66C200.8,33.33,200.95,33.99,200.95,34.7z M193.76,26.68v-2.45h3.09
			v2.45h5.41v2.45h-13.93v-2.45H193.76z M198.17,34.7c0-0.76-0.28-1.4-0.82-1.94c-0.55-0.54-1.22-0.81-2.01-0.81
			c-0.79,0-1.46,0.27-2.01,0.81c-0.55,0.54-0.82,1.19-0.82,1.94c0,0.76,0.27,1.41,0.82,1.96c0.55,0.55,1.22,0.82,2.01,0.82
			c0.79,0,1.46-0.27,2.01-0.82C197.89,36.1,198.17,35.45,198.17,34.7z M207.39,47.37h-2.86V24.39h2.86v9.66h2.94v2.68h-2.94V47.37z"
			/>
		<path class="st2" d="M211.74,29.26v-2.45h4.53v-2.45h3.01v2.45h4.35v2.45h-4.97l5.28,14.22l-2.45,0.95l-3.73-10.25l-3.68,10.43
			l-2.52-0.93l5.28-14.42H211.74z M225.57,24.42h2.68v22.82h-2.68V35.83h-3.09v-2.58h3.09V24.42z M230.16,24.39h2.73v22.98h-2.73
			V24.39z"/>
		<path class="st2" d="M257.46,35.57v2.5h-4.71v2.16h3.01v7.19h-2.86v-4.69h-15.12v-2.5h3.27v-2.16h-4.71v-2.5H257.46z
			 M252.93,29.23c0,0.77-0.16,1.5-0.48,2.18c-0.32,0.68-0.75,1.27-1.3,1.79c-0.55,0.52-1.19,0.92-1.92,1.21
			c-0.73,0.29-1.51,0.44-2.33,0.44c-0.82,0-1.6-0.15-2.33-0.44c-0.73-0.29-1.37-0.7-1.92-1.21c-0.55-0.52-0.99-1.11-1.31-1.79
			c-0.33-0.68-0.49-1.4-0.49-2.18c0-0.77,0.16-1.5,0.49-2.18c0.33-0.68,0.76-1.27,1.31-1.76c0.55-0.52,1.19-0.92,1.92-1.22
			c0.73-0.3,1.51-0.45,2.33-0.45c0.82,0,1.6,0.15,2.33,0.45c0.73,0.3,1.37,0.71,1.92,1.22c0.55,0.5,0.98,1.09,1.3,1.76
			C252.77,27.74,252.93,28.46,252.93,29.23z M250.1,29.23c0-0.88-0.31-1.61-0.94-2.21c-0.63-0.6-1.38-0.9-2.25-0.9
			c-0.88,0-1.63,0.3-2.25,0.9c-0.63,0.6-0.94,1.34-0.94,2.21c0,0.89,0.31,1.64,0.94,2.24c0.63,0.6,1.38,0.9,2.25,0.9
			c0.88,0,1.63-0.3,2.25-0.9C249.78,30.87,250.1,30.13,250.1,29.23z M249.94,40.23v-2.16h-6.08v2.16H249.94z"/>
		<path class="st2" d="M274.95,35.65v2.5h-14.91v-2.5h4.66v-5.13h2.83v5.13H274.95z M270.86,33.46v-6.1h-9.79v-2.5h12.6v8.6H270.86z
			 M261.66,46.98v-6.9h2.86v4.38h15.45v2.52H261.66z M279.56,39.49h-2.86V24.39h2.86v6.18h2.94v2.6h-2.94V39.49z"/>
		<path class="st2" d="M299.01,34.18v2.45H284.1v-2.45h4.66v-4.2h2.83v4.2H299.01z M294.92,32.22v-4.95h-9.79v-2.45h12.6v7.39
			H294.92z M301.74,42.94c0,0.74-0.16,1.44-0.48,2.11c-0.32,0.67-0.74,1.25-1.28,1.73c-0.51,0.5-1.13,0.89-1.84,1.18
			c-0.71,0.29-1.47,0.44-2.28,0.44c-0.81,0-1.57-0.15-2.28-0.44c-0.71-0.29-1.34-0.69-1.87-1.18c-0.53-0.48-0.96-1.06-1.27-1.73
			c-0.32-0.67-0.48-1.37-0.48-2.11s0.16-1.44,0.48-2.11c0.32-0.67,0.74-1.25,1.27-1.75c0.53-0.48,1.16-0.87,1.87-1.16
			c0.71-0.29,1.47-0.44,2.28-0.44c0.81,0,1.57,0.15,2.28,0.44c0.71,0.29,1.33,0.68,1.84,1.16c0.53,0.5,0.96,1.08,1.28,1.75
			C301.58,41.5,301.74,42.2,301.74,42.94z M298.88,42.94c0-0.82-0.3-1.53-0.89-2.12s-1.3-0.89-2.12-0.89c-0.82,0-1.54,0.3-2.14,0.89
			c-0.6,0.59-0.9,1.3-0.9,2.12s0.3,1.53,0.9,2.12c0.6,0.59,1.31,0.89,2.14,0.89c0.82,0,1.53-0.3,2.12-0.89
			C298.59,44.47,298.88,43.76,298.88,42.94z M303.62,37.04h-2.86V24.39h2.86v4.92h2.94v2.58h-2.94V37.04z"/>
		<path class="st2" d="M308.51,38.92h21.12v2.52h-9.14v5.92h-2.86v-5.92h-9.12V38.92z M313.02,27.69h12.08v-2.91h2.83v11.05h-17.72
			V24.78h2.81V27.69z M325.1,30.16h-12.08v3.17h12.08V30.16z"/>
	</g>
	<g>
		<g>
			<path class="st2" d="M177.39,81.89v-4.85h-13.21v-3.66h30.59v3.66h-13.24v4.85h10.78v11.6h-4.14v-7.98h-21.9v-3.62H177.39z
				 M192.24,60.81v9.92h-4.14v-6.27h-21.53v-3.66H192.24z"/>
			<path class="st2" d="M218.2,78.08h-17.94V67.94h13.47v-3.32h-13.47v-3.51h17.57v10.18h-13.47v3.36h13.84V78.08z M202.12,79.84
				h4.07v2.76h17.94v-2.76h4.07v12.91h-26.08V79.84z M224.13,85.96h-17.94v3.36h17.94V85.96z M224.06,60.14h4.14v18.58h-4.14V60.14z
				"/>
			<path class="st2" d="M247.08,81.89v-4.85h-13.21v-3.66h30.59v3.66h-13.24v4.85H262v11.6h-4.14v-7.98h-21.9v-3.62H247.08z
				 M261.93,60.81v9.92h-4.14v-6.27h-21.53v-3.66H261.93z"/>
			<path class="st2" d="M288.41,74.09c0,1.32-0.27,2.57-0.82,3.77c-0.55,1.19-1.28,2.23-2.2,3.1c-0.92,0.9-2,1.6-3.23,2.13
				c-1.23,0.52-2.56,0.78-3.97,0.78c-1.39,0-2.71-0.26-3.94-0.78c-1.23-0.52-2.31-1.23-3.23-2.13c-0.92-0.87-1.65-1.9-2.2-3.1
				c-0.55-1.19-0.82-2.45-0.82-3.77c0-1.34,0.27-2.61,0.82-3.81c0.55-1.19,1.28-2.23,2.2-3.1c0.92-0.87,2-1.57,3.23-2.09
				c1.23-0.52,2.54-0.78,3.94-0.78c1.42,0,2.74,0.26,3.97,0.78c1.23,0.52,2.31,1.22,3.23,2.09c0.92,0.87,1.65,1.9,2.2,3.1
				C288.14,71.48,288.41,72.75,288.41,74.09z M284.31,74.09c0-0.85-0.16-1.63-0.49-2.37c-0.32-0.73-0.76-1.39-1.31-1.96
				c-0.57-0.52-1.23-0.95-1.96-1.29c-0.73-0.34-1.52-0.5-2.37-0.5c-0.82,0-1.6,0.17-2.35,0.5c-0.75,0.34-1.39,0.77-1.94,1.29
				c-0.55,0.57-0.99,1.23-1.33,1.96c-0.34,0.73-0.5,1.52-0.5,2.37c0,0.85,0.17,1.64,0.5,2.37c0.34,0.73,0.78,1.37,1.33,1.92
				c0.55,0.55,1.19,0.99,1.94,1.32c0.75,0.34,1.53,0.5,2.35,0.5c0.84,0,1.63-0.17,2.37-0.5c0.73-0.34,1.39-0.78,1.96-1.32
				c0.55-0.55,0.98-1.19,1.31-1.92C284.15,75.73,284.31,74.94,284.31,74.09z M293.75,60.14h4.14v33.28h-4.14v-17.5h-4.4v-3.66h4.4
				V60.14z"/>
			<path class="st2" d="M325.53,80.14h-8.8v5.04h-4.14v-5.04h-9.18v-3.66h22.12V80.14z M305.69,92.86v-9.51h4.1v5.89h22.91v3.62
				H305.69z M322.59,67.45c0,1.07-0.22,2.06-0.67,2.98c-0.45,0.92-1.03,1.74-1.75,2.46c-0.77,0.7-1.66,1.24-2.67,1.64
				c-1.01,0.4-2.08,0.6-3.23,0.6c-1.14,0-2.22-0.2-3.23-0.6c-1.01-0.4-1.9-0.94-2.67-1.64c-0.72-0.72-1.31-1.54-1.75-2.46
				c-0.45-0.92-0.67-1.91-0.67-2.98c0-1.07,0.22-2.07,0.67-3c0.45-0.93,1.03-1.76,1.75-2.48c0.77-0.7,1.66-1.24,2.67-1.64
				c1.01-0.4,2.08-0.6,3.23-0.6c1.14,0,2.22,0.2,3.23,0.6c1.01,0.4,1.9,0.95,2.67,1.64c0.72,0.72,1.31,1.55,1.75,2.48
				C322.36,65.38,322.59,66.38,322.59,67.45z M318.6,67.45c0-1.19-0.43-2.19-1.29-3c-0.86-0.81-1.87-1.21-3.04-1.21
				c-1.17,0-2.18,0.4-3.04,1.21c-0.86,0.81-1.29,1.81-1.29,3c0,1.17,0.43,2.16,1.29,2.97c0.86,0.81,1.87,1.21,3.04,1.21
				c1.17,0,2.18-0.4,3.04-1.21C318.17,69.61,318.6,68.62,318.6,67.45z M328.18,60.14h4.1v25.41h-4.1V73.27h-4.63v-3.58h4.63V60.14z"
				/>
		</g>
	</g>
</g>
</svg>
